<?xml version="1.0" standalone="no"?>
<!DOCTYPE svg PUBLIC "-//W3C//DTD SVG 20010904//EN"
 "http://www.w3.org/TR/2001/REC-SVG-20010904/DTD/svg10.dtd">
<svg version="1.0" xmlns="http://www.w3.org/2000/svg"
 width="320.000000pt" height="320.000000pt" viewBox="0 0 320.000000 320.000000"
 preserveAspectRatio="xMidYMid meet">
<metadata>
Created by potrace 1.14, written by Peter Selinger 2001-2017
</metadata>
<g transform="translate(0.000000,320.000000) scale(0.100000,-0.100000)"
fill="#000000" stroke="none">
<path d="M256 3042 c-51 -11 -106 -90 -106 -152 0 -43 34 -105 69 -126 16 -10
31 -25 33 -33 2 -9 3 -179 2 -379 l-1 -362 -30 -28 c-17 -15 -40 -45 -51 -66
-20 -38 -21 -54 -22 -446 0 -379 1 -410 19 -452 24 -57 68 -94 135 -113 l53
-16 0 -82 c0 -75 2 -99 19 -181 3 -15 17 -53 31 -84 79 -179 238 -310 433
-356 56 -13 167 -15 770 -12 388 2 716 5 730 8 156 31 301 127 390 258 77 114
102 194 106 338 2 95 14 139 33 128 4 -3 27 4 51 15 46 21 95 67 113 109 7 17
11 164 12 435 2 456 1 460 -64 517 l-36 32 -1 368 0 369 27 16 c46 27 72 72
77 130 4 45 0 59 -22 93 -58 88 -172 103 -246 31 -27 -25 -50 -77 -50 -112 0
-49 35 -113 73 -134 l33 -18 1 -303 c0 -284 -5 -345 -22 -258 -26 142 -156
305 -304 384 -112 59 -191 76 -363 75 -71 0 -128 3 -128 8 0 4 5 7 10 7 12 0
43 30 64 62 20 31 26 81 15 122 -10 36 -66 97 -95 104 -11 2 -194 5 -409 6
-433 2 -445 0 -492 -61 -53 -69 -32 -181 43 -225 18 -11 34 -21 34 -21 0 -1
-62 -2 -138 -3 -75 0 -155 -3 -177 -7 -160 -26 -318 -128 -409 -266 -46 -68
-95 -181 -98 -226 -1 -13 -4 -22 -7 -19 -7 7 -5 620 3 633 4 6 13 11 20 11 8
0 27 17 42 38 55 71 30 196 -46 233 -26 13 -92 19 -124 11z"/>
</g>
</svg>
