<?xml version="1.0" standalone="no"?>
<!DOCTYPE svg PUBLIC "-//W3C//DTD SVG 20010904//EN"
 "http://www.w3.org/TR/2001/REC-SVG-20010904/DTD/svg10.dtd">
<svg version="1.0" xmlns="http://www.w3.org/2000/svg"
 width="865.000000pt" height="865.000000pt" viewBox="0 0 865.000000 865.000000"
 preserveAspectRatio="xMidYMid meet">
<metadata>
Created by potrace 1.14, written by Peter Selinger 2001-2017
</metadata>
<g transform="translate(0.000000,865.000000) scale(0.100000,-0.100000)"
fill="#000000" stroke="none">
<path d="M2919 6878 c-9 -7 -29 -35 -46 -63 -42 -68 -2786 -4822 -2807 -4864
-21 -40 -9 -82 30 -100 18 -8 774 -11 2860 -11 l2835 0 24 25 c14 13 25 33 25
44 0 16 266 481 1462 2551 52 91 373 647 713 1235 339 589 621 1074 626 1079
18 19 10 72 -14 94 l-23 22 -2835 0 c-2253 0 -2838 -3 -2850 -12z m5531 -135
c0 -3 -289 -507 -642 -1120 l-643 -1113 -1302 0 -1301 0 420 728 c231 400 522
904 646 1120 l227 392 1297 0 c714 0 1298 -3 1298 -7z m-4150 -2388 c0 -3
-307 -537 -681 -1185 l-681 -1180 -1339 0 c-737 0 -1339 2 -1339 5 0 3 306
537 681 1185 l681 1180 1339 0 c736 0 1339 -2 1339 -5z"/>
</g>
</svg>
